<?xml version="1.0" encoding="UTF-8"?>
<svg width="72px" height="72px" viewBox="0 0 72 72" version="1.1" xmlns="http://www.w3.org/2000/svg" xmlns:xlink="http://www.w3.org/1999/xlink">
    <!-- Generator: Sketch 52.3 (67297) - http://www.bohemiancoding.com/sketch -->
    <title>saoyisao</title>
    <desc>Created with Sketch.</desc>
    <g id="Page-1" stroke="none" stroke-width="1" fill="none" fill-rule="evenodd">
        <g id="移动端-上传" transform="translate(-210.000000, -941.000000)" fill="#4672F6" fill-rule="nonzero">
            <g id="扫一扫" transform="translate(210.000000, 941.000000)">
                <path d="M65.4479827,2.109375e-05 L54.0719955,2.109375e-05 C52.2719964,2.109375e-05 50.7959974,1.47528281 50.7959974,3.27438281 C50.7959975,5.07348281 52.2719964,6.54874453 54.0719955,6.54874453 L62.1719634,6.54874453 C63.9719626,6.54874453 65.4479616,8.02400625 65.4479616,9.82310625 L65.4479616,17.9910281 C65.4479616,19.7901281 66.9239606,21.2653898 68.7239597,21.2653898 C70.5239588,21.2653898 71.9999578,19.7901281 71.9999578,17.9910281 L71.9999578,6.54872344 C71.9999578,2.9145375 69.0839567,0 65.4479616,0 L65.4479827,2.109375e-05 Z M3.27600515,21.2654039 C5.07600427,21.2654039 6.55200327,19.7901422 6.55200327,17.9910422 L6.55200327,9.78712031 C6.55200327,7.98802031 8.02800227,6.51275859 9.82800139,6.51275859 L17.9279693,6.51275859 C19.7279684,6.51275859 21.2039674,5.03749688 21.2039674,3.23839688 C21.2039673,1.43929688 19.7279684,1.40625164e-05 17.8919654,1.40625164e-05 L6.55199624,1.40625164e-05 C2.91599407,1.40625164e-05 0,2.91455859 0,6.5487375 L0,17.9910422 C0,19.7901422 1.475999,21.2654039 3.27599812,21.2654039 L3.27600515,21.2654039 Z M17.9640295,65.5232555 L9.8280436,65.5232555 C8.02804448,65.5232555 6.55204548,64.0479937 6.55204548,62.2488937 L6.55204548,54.1169719 C6.55204548,52.3538508 5.11204337,50.8785891 3.31204425,50.8785891 L3.24004414,50.8785891 C1.47604191,50.8785891 4.29120601e-05,52.3178719 4.29120601e-05,54.1169719 L4.29120601e-05,65.4512766 C4.29120601e-05,69.0494766 2.91604402,72 6.55203915,72 L17.9640443,72 C19.7280465,72 21.2040455,70.5607172 21.2040455,68.7616172 C21.2040454,66.9625172 19.7280465,65.5232344 17.9640443,65.5232344 L17.9640295,65.5232555 Z M68.7600199,50.878568 L68.6520201,50.878568 C66.8880178,50.878568 65.4120188,52.3178508 65.4120188,54.1169508 L65.4120188,62.2488727 C65.4120188,64.0479727 63.9360198,65.5232344 62.1360207,65.5232344 L54.0000348,65.5232344 C52.2360326,65.5232344 50.7600336,66.9625172 50.7600336,68.7616172 C50.7600336,70.5607172 52.2000357,72 54.0000348,72 L65.4120399,72 C69.0120382,72 71.9640362,69.0854555 71.9640362,65.4512766 L71.9640362,54.1529016 C72.0000362,52.3178156 70.560038,50.8785398 68.7600389,50.8785398 L68.7600199,50.878568 Z M3.27600515,39.3283336 L68.7240019,39.3283336 C70.524001,39.3283336 72,37.8530719 72,36.0539719 C72,34.2548719 70.5599979,32.7796102 68.7240019,32.7796102 L3.27600515,32.7796102 C1.47600603,32.7796102 7.03476395e-06,34.2548719 7.03476395e-06,36.0539719 C7.03476395e-06,37.8530719 1.47600603,39.3283336 3.27600515,39.3283336 Z" id="形状"></path>
            </g>
        </g>
    </g>
</svg>