<?xml version="1.0" encoding="UTF-8"?>
<svg width="71px" height="71px" viewBox="0 0 71 71" version="1.1" xmlns="http://www.w3.org/2000/svg" xmlns:xlink="http://www.w3.org/1999/xlink">
    <!-- Generator: Sketch 52.3 (67297) - http://www.bohemiancoding.com/sketch -->
    <title>shuaxin</title>
    <desc>Created with Sketch.</desc>
    <g id="Page-1" stroke="none" stroke-width="1" fill="none" fill-rule="evenodd">
        <g id="移动端-上传" transform="translate(-479.000000, -941.000000)" fill="#4672F6">
            <g id="新东方-刷新图标" transform="translate(479.000000, 941.000000)">
                <path d="M67.43148,25.9461674 L53.2298968,25.9461674 C51.4181361,25.9461674 49.9526752,24.4782147 49.9526752,22.668787 C49.9526752,20.8595097 51.4182197,19.3915654 53.2298968,19.3915654 L58.9309237,19.3915654 C53.7882775,12.1248817 45.3317027,7.37484112 35.7509331,7.37484112 C20.0641809,7.37484112 7.34759936,20.0915063 7.34759936,35.7780076 C7.34759936,51.4646762 20.0642645,64.1812577 35.7509331,64.1812577 C51.4376017,64.1812577 64.1541832,51.4645926 64.1541832,35.7780076 C64.1541832,33.9687303 65.6196525,32.5007861 67.4313295,32.5007861 C69.2407573,32.5007861 70.7087935,33.9687387 70.7087935,35.7780076 C70.7087935,55.0846188 55.0560726,70.7359182 35.7508829,70.7359182 C16.4454424,70.7359182 0.792888694,55.0847024 0.792888694,35.7780076 C0.792888694,16.4714801 16.4454424,0.820180617 35.7508829,0.820180617 C47.4675967,0.820180617 57.8164534,6.59685406 64.154133,15.447364 L64.154133,9.55967499 C64.154133,7.75024721 65.6196023,6.28236983 67.4312793,6.28236983 C69.2407071,6.28236983 70.7087434,7.75024721 70.7087434,9.55967499 L70.7087434,22.6688288 C70.7089357,24.4782231 69.2407406,25.9461674 67.43148,25.9461674 Z" id="路径"></path>
            </g>
        </g>
    </g>
</svg>