<?xml version="1.0" encoding="UTF-8"?>
<svg width="32px" height="32px" viewBox="0 0 32 32" version="1.1" xmlns="http://www.w3.org/2000/svg" xmlns:xlink="http://www.w3.org/1999/xlink">
    <!-- Generator: Sketch 52.3 (67297) - http://www.bohemiancoding.com/sketch -->
    <title>yulan</title>
    <desc>Created with Sketch.</desc>
    <g id="Page-1" stroke="none" stroke-width="1" fill="none" fill-rule="evenodd">
        <g id="移动端-上传" transform="translate(-664.000000, -253.000000)" fill="#999999" fill-rule="nonzero">
            <g id="查看-copy-2" transform="translate(664.000000, 253.000000)">
                <path d="M30.2222539,16.0000186 L26.6666873,16.0000186 L26.6666873,4.44444267 C26.6666873,3.95352335 26.2687181,3.55555414 25.7777987,3.55555414 L4.44443017,3.55555414 C3.95351081,3.55555416 3.5555416,3.95352335 3.5555416,4.44444267 C3.5555416,4.44444267 3.5555416,4.44444267 3.5555416,4.44444267 L3.5555416,27.5555946 L3.5555416,27.5555947 C3.55554167,28.046514 3.95351081,28.4444832 4.44443013,28.4444832 L16.0000061,28.4444832 L16.0000061,32.0000499 L1.77777078,32.0000499 C0.795928935,32.0000498 -9.49157478e-06,31.2041114 -9.49157478e-06,30.2222697 L-9.49157478e-06,1.77779908 L-9.49157477e-06,1.77779935 C-9.63982869e-06,0.795957579 0.795928935,1.91526776e-05 1.7777707,1.91526776e-05 L28.444458,1.91526776e-05 C29.4262997,1.910976e-05 30.2222381,0.795957579 30.2222381,1.77779935 L30.2222381,16.0000346 L30.2222539,16.0000186 Z M7.55557129,6.04444453 L19.6444604,6.04444453 C20.4790238,6.04432451 21.1556715,6.72077657 21.1557902,7.55534004 C21.1559103,8.38990351 20.4794582,9.06655118 19.6448947,9.06666993 C19.6447499,9.06666995 19.644605,9.06666995 19.6444601,9.06666993 L7.55557105,9.06666993 C6.72100757,9.06654991 6.04455678,8.38990351 6.04467553,7.55534004 C6.04479553,6.72094532 6.72117632,6.04456328 7.55557104,6.04444453 L7.55557129,6.04444453 Z M7.55557129,18.1333336 L12.0889203,18.1333336 C12.9234838,18.1332136 13.6001314,18.8096656 13.6002502,19.6442291 C13.6003702,20.4787926 12.9239182,21.1554402 12.0893547,21.155559 C12.0892098,21.155559 12.0890649,21.155559 12.0889201,21.155559 L7.55557105,21.155559 C6.72100757,21.155439 6.04455678,20.4787926 6.04467553,19.6442291 C6.04479553,18.8098344 6.72117632,18.1334524 7.55557104,18.1333336 L7.55557129,18.1333336 Z M7.55557129,12.0888891 L13.6000158,12.0888891 C14.4345792,12.088889 15.11113,12.7654367 15.11113,13.6000033 C15.11113,14.4345668 14.4345823,15.1111176 13.6000157,15.1111176 L7.55557121,15.1111176 C6.72100769,15.1111175 6.0444569,14.4345699 6.0444569,13.6000033 C6.04445694,12.7654399 6.72100456,12.0888891 7.55557116,12.0888891 L7.55557129,12.0888891 Z M23.6889338,16.8888947 L23.6889342,16.8888947 C27.4439385,16.8908556 30.4877858,19.9338888 30.4907233,23.6889026 C30.4907233,25.0169041 30.0907229,26.2471274 29.4347221,27.2977818 L31.5573902,29.4186717 C32.1146753,30.0425412 32.0606971,31.0000549 31.4368292,31.5573399 C30.8620847,32.0707436 29.9934681,32.0707436 29.4187206,31.5573398 L27.2978306,29.4346717 C26.2187168,30.1191163 24.9671623,30.4835604 23.6889514,30.4871167 L23.6889518,30.4871167 C19.9339161,30.547838 16.8406,27.5529914 16.7798812,23.7979527 C16.7191599,20.042917 19.7140065,16.9496009 23.4690453,16.8888821 C23.5423372,16.8876969 23.6156436,16.8876969 23.6889355,16.8888821 L23.6889338,16.8888947 Z M23.6889338,27.4666882 C25.7763269,27.4657064 27.4676882,25.7727425 27.4667195,23.6853401 C27.4657377,21.597947 25.7727738,19.9065857 23.6853713,19.9075544 C23.6853713,19.9075544 23.6853713,19.9075544 23.6853712,19.9075544 L23.6853714,19.9075544 C21.5979784,19.9085362 19.906617,21.6015001 19.9075858,23.6889026 C19.9085675,25.7762956 21.6015315,27.467657 23.6889339,27.4666882 Z" id="形状"></path>
            </g>
        </g>
    </g>
</svg>